<?xml version="1.0" encoding="UTF-8"?>
<svg width="90px" height="90px" viewBox="0 0 90 90" version="1.1" xmlns="http://www.w3.org/2000/svg" xmlns:xlink="http://www.w3.org/1999/xlink">
    <!-- Generator: Sketch 45 (43475) - http://www.bohemiancoding.com/sketch -->
    <title>crazy</title>
    <desc>Created with Sketch.</desc>
    <defs></defs>
    <g id="Page-1" stroke="none" stroke-width="1" fill="none" fill-rule="evenodd">
        <g id="crazy" fill-rule="nonzero" fill="#000000">
            <g id="Group">
                <path d="M45,0 C20.1,0 0,20.1 0,45 C0,69.8 20.1,90 45,90 C69.9,90 90,69.8 90,45 C90,20.1 69.9,0 45,0 Z M45,86 C22.4,86 4,67.6 4,45 C4,22.4 22.4,4 45,4 C67.6,4 86,22.4 86,45 C86,67.6 67.6,86 45,86 Z" id="Shape"></path>
                <path d="M21.8,65.3 L21.8,65.3 C21,69.4 22.3,73.3 25.3,75.1 C26.6,76.1 28.2,76.6 29.9,76.6 C32.3,76.6 34.9,75.6 37.1,73.8 C39.7,74.5 42.3,74.8 45,74.8 C59.4,74.7 71.8,65.2 75.9,54 L14.1,54 C15.6,58.1 18.3,62 21.8,65.3 Z M27.6,71.9 L27.4,71.7 C26.4,71.1 25.8,69.9 25.6,68.4 C25.4,67 25.7,65.3 26.4,63.7 C27.2,62 28.5,60.5 29.9,59.7 C30.4,59.4 31.2,59.1 32.1,59.1 C32.5,59.1 32.9,59.2 33.3,59.4 C33.7,59.6 34.1,59.9 34.4,60.4 L35,61 L35.7,61.2 C36.2,61.3 36.7,61.6 37,61.9 C38,62.9 38,64.4 37.9,65.2 C37.7,66.8 36.8,68.5 35.4,69.9 C34.4,70.9 33.3,71.7 32.1,72.1 C30.4,72.8 28.7,72.8 27.6,71.9 Z" id="Shape"></path>
                <path d="M44.5,37.8 C44.5,28.4 36.9,20.8 27.5,20.8 C18.1,20.8 10.5,28.4 10.5,37.8 C10.5,46.4 16.4,51.4 26.8,51.4 C37.7,51.4 44.5,46.2 44.5,37.8 Z M27.5,24.8 C34.7,24.8 40.5,30.6 40.5,37.8 C40.5,46.4 30.9,47.4 26.8,47.4 C18.6,47.4 14.5,44.2 14.5,37.8 C14.5,30.6 20.3,24.8 27.5,24.8 Z" id="Shape"></path>
                <path d="M27.5,41.8 C29.7,41.8 31.5,40 31.5,37.8 C31.5,35.6 29.7,33.8 27.5,33.8 C25.3,33.8 23.5,35.6 23.5,37.8 C23.5,40 25.3,41.8 27.5,41.8 Z" id="Shape"></path>
                <path d="M62.5,24.8 C53.1,24.8 45.5,32.4 45.5,41.8 L45.5,43.8 L79.5,43.8 L79.5,41.8 C79.5,32.4 71.9,24.8 62.5,24.8 Z M67.4,39.8 C66.9,37.5 64.9,35.8 62.5,35.8 C60.1,35.8 58.1,37.5 57.6,39.8 L49.7,39.8 C50.7,33.6 56.1,28.8 62.5,28.8 C69,28.8 74.4,33.6 75.3,39.8 L67.4,39.8 Z" id="Shape"></path>
            </g>
        </g>
    </g>
</svg>