<?xml version="1.0" encoding="UTF-8"?>
<svg width="59px" height="60px" viewBox="0 0 59 60" version="1.1" xmlns="http://www.w3.org/2000/svg" xmlns:xlink="http://www.w3.org/1999/xlink">
    <!-- Generator: Sketch 45 (43475) - http://www.bohemiancoding.com/sketch -->
    <title>phone</title>
    <desc>Created with Sketch.</desc>
    <defs></defs>
    <g id="Page-1" stroke="none" stroke-width="1" fill="none" fill-rule="evenodd">
        <g id="phone" fill-rule="nonzero" fill="#000000">
            <g id="Group">
                <g id="Shape">
                    <path d="M43,58 L17,58 C15.9,58 15,57.1 15,56 L15,4 C15,2.9 15.9,2 17,2 L43,2 C44.1,2 45,2.9 45,4 L45,56 C45,57.1 44.1,58 43,58 Z M43,60 C45.2,60 47,58.2 47,56 L47,4 C47,1.8 45.2,0 43,0 L17,0 C14.8,0 13,1.8 13,4 L13,56 C13,58.2 14.8,60 17,60 L43,60 Z"></path>
                    <path d="M13,52 L47,52 L47,6 L13,6 L13,52 Z M15,8 L45,8 L45,50 L15,50 L15,8 Z"></path>
                    <path d="M29,5 L34,5 C34.6,5 35,4.6 35,4 C35,3.4 34.6,3 34,3 L29,3 C28.4,3 28,3.4 28,4 C28,4.6 28.4,5 29,5 Z"></path>
                    <path d="M25,5 L26,5 C26.6,5 27,4.6 27,4 C27,3.4 26.6,3 26,3 L25,3 C24.4,3 24,3.4 24,4 C24,4.6 24.4,5 25,5 Z"></path>
                    <path d="M12,10 L12,11 C12,11.6 12.4,12 13,12 C13.6,12 14,11.6 14,11 L14,10 C14,9.4 13.6,9 13,9 C12.4,9 12,9.4 12,10 Z"></path>
                    <path d="M12,14 L12,15 C12,15.6 12.4,16 13,16 C13.6,16 14,15.6 14,15 L14,14 C14,13.4 13.6,13 13,13 C12.4,13 12,13.4 12,14 Z"></path>
                    <path d="M12,18 L12,19 C12,19.6 12.4,20 13,20 C13.6,20 14,19.6 14,19 L14,18 C14,17.4 13.6,17 13,17 C12.4,17 12,17.4 12,18 Z"></path>
                    <path d="M32,55 C32,56.1 31.1,57 30,57 C28.9,57 28,56.1 28,55 C28,53.9 28.9,53 30,53 C31.1,53 32,53.9 32,55 Z M34,55 C34,52.8 32.2,51 30,51 C27.8,51 26,52.8 26,55 C26,57.2 27.8,59 30,59 C32.2,59 34,57.2 34,55 Z"></path>
                    <path d="M27,34 L27,25 C27,24.4 26.6,24 26,24 C25.4,24 25,24.4 25,25 L25,34 C25,34.6 25.4,35 26,35 C26.6,35 27,34.6 27,34 Z"></path>
                    <path d="M23,40 C25.3,40 27,38.3 27,36 L27,33 C27,32.4 26.6,32 26,32 L23,32 C20.8,32 19,33.9 19,36.2 C19,38.4 20.7,40 23,40 Z M25,36 C25,37.1 24.1,38 23,38 C21.8,38 21,37.3 21,36.2 C21,35 21.9,34 23,34 L25,34 L25,36 Z"></path>
                    <path d="M41,31 L41,22 C41,21.4 40.6,21 40,21 C39.4,21 39,21.4 39,22 L39,31 C39,31.6 39.4,32 40,32 C40.6,32 41,31.6 41,31 Z"></path>
                    <path d="M37,37 C39.3,37 41,35.3 41,33 L41,30 C41,29.4 40.6,29 40,29 L37,29 C34.8,29 33,30.9 33,33.2 C33,35.4 34.7,37 37,37 Z M39,33 C39,34.1 38.1,35 37,35 C35.8,35 35,34.3 35,33.2 C35,32 35.9,31 37,31 L39,31 L39,33 Z"></path>
                    <path d="M39,21.2 L27,23.8 L27,20.8 L39,18.2 L39,21.2 Z M40.2,23 C40.7,22.9 41,22.5 41,22 L41,17 C41,16.4 40.4,15.9 39.8,16 L25.8,19 C25.3,19.1 25,19.5 25,20 L25,25 C25,25.6 25.6,26.1 26.2,26 L40.2,23 Z"></path>
                    <path d="M9,4 C7.3,4 6,2.7 6,1 C6,-0.3 4,-0.3 4,1 C4,2.7 2.7,4 1,4 C-0.3,4 -0.3,6 1,6 C2.7,6 4,7.3 4,9 C4,10.3 6,10.3 6,9 C6,7.3 7.3,6 9,6 C10.3,6 10.3,4 9,4 Z M5,6 C4.7,5.6 4.4,5.3 4,5 C4.4,4.7 4.7,4.4 5,4 C5.3,4.4 5.6,4.7 6,5 C5.6,5.3 5.3,5.6 5,6 Z"></path>
                    <path d="M55,19 L55,15 C55,14.4 54.6,14 54,14 C53.4,14 53,14.4 53,15 L53,19 C53,19.6 53.4,20 54,20 C54.6,20 55,19.6 55,19 Z"></path>
                    <path d="M52,18 L56,18 C56.6,18 57,17.6 57,17 C57,16.4 56.6,16 56,16 L52,16 C51.4,16 51,16.4 51,17 C51,17.6 51.4,18 52,18 Z"></path>
                    <path d="M8,44 C8,44.6 7.6,45 7,45 C6.4,45 6,44.6 6,44 C6,43.4 6.4,43 7,43 C7.6,43 8,43.4 8,44"></path>
                    <path d="M3,26 C3,26.6 2.6,27 2,27 C1.4,27 1,26.6 1,26 C1,25.4 1.4,25 2,25 C2.6,25 3,25.4 3,26"></path>
                    <path d="M52,36 C52,36.6 51.6,37 51,37 C50.4,37 50,36.6 50,36 C50,35.4 50.4,35 51,35 C51.6,35 52,35.4 52,36"></path>
                    <path d="M59,57 C59,57.6 58.6,58 58,58 C57.4,58 57,57.6 57,57 C57,56.4 57.4,56 58,56 C58.6,56 59,56.4 59,57"></path>
                </g>
            </g>
        </g>
    </g>
</svg>