<?xml version="1.0" standalone="no"?>
<!DOCTYPE svg PUBLIC "-//W3C//DTD SVG 20010904//EN"
 "http://www.w3.org/TR/2001/REC-SVG-20010904/DTD/svg10.dtd">
<svg version="1.0" xmlns="http://www.w3.org/2000/svg"
 width="184.000000pt" height="184.000000pt" viewBox="0 0 184.000000 184.000000"
 preserveAspectRatio="xMidYMid meet">
<metadata>
Created by potrace 1.11, written by Peter Selinger 2001-2013
</metadata>
<g transform="translate(0.000000,184.000000) scale(0.100000,-0.100000)"
fill="#000000" stroke="none">
<path d="M800 1734 c-263 -71 -428 -327 -415 -649 7 -182 94 -319 249 -390
101 -46 261 -57 366 -25 71 21 80 8 22 -30 -20 -14 -82 -70 -137 -125 -120
-120 -157 -185 -159 -280 -2 -92 40 -143 125 -152 148 -17 249 133 336 496
l18 74 125 84 c69 46 131 92 138 101 28 36 0 118 -36 105 -14 -5 -108 -73
-191 -137 -13 -10 -12 22 4 114 1 8 6 42 10 75 4 33 9 75 11 93 3 23 -2 38
-16 52 -18 18 -33 20 -163 20 -154 0 -179 -7 -191 -54 -7 -27 8 -76 27 -88 7
-4 49 -8 94 -8 l82 0 -4 -37 c-3 -21 -7 -58 -9 -82 -5 -48 -12 -55 -71 -73
-100 -29 -250 -13 -321 35 -89 61 -125 153 -119 302 6 161 44 264 128 348 66
68 123 92 217 91 122 0 149 -31 135 -159 -6 -56 -4 -66 14 -84 29 -29 91 -28
119 2 31 33 44 75 44 142 -1 106 -44 180 -130 222 -48 23 -70 28 -151 29 -59
2 -117 -3 -151 -12z m209 -1309 c-41 -160 -105 -253 -146 -213 -22 23 -10 95
27 149 27 41 131 152 136 146 2 -1 -6 -39 -17 -82z"/>
</g>
</svg>
