<?xml version="1.0" encoding="UTF-8"?>
<svg width="48px" height="44px" viewBox="0 0 48 44" version="1.1" xmlns="http://www.w3.org/2000/svg" xmlns:xlink="http://www.w3.org/1999/xlink">
    <!-- Generator: Sketch 45 (43475) - http://www.bohemiancoding.com/sketch -->
    <title>login</title>
    <desc>Created with Sketch.</desc>
    <defs></defs>
    <g id="Page-1" stroke="none" stroke-width="1" fill="none" fill-rule="evenodd">
        <g id="login" transform="translate(1.000000, 1.000000)" stroke-width="2" stroke="#000000">
            <g id="Group">
                <rect id="Rectangle-path" x="0" y="0" width="46" height="35"></rect>
                <g transform="translate(15.000000, 35.000000)" id="Shape">
                    <path d="M0,0 L0,7"></path>
                    <path d="M16,0 L16,7"></path>
                </g>
                <path d="M10,42 L36,42" id="Shape"></path>
                <path d="M46,29 L0,29" id="Shape"></path>
                <g transform="translate(4.000000, 7.000000)">
                    <rect id="Rectangle-path" x="0" y="8" width="14" height="9"></rect>
                    <path d="M3,8 L3,4 C3,1.8 4.8,0 7,0 L7,0 C9.2,0 11,1.8 11,4 L11,8" id="Shape"></path>
                </g>
                <rect id="Rectangle-path" x="23" y="8" width="19" height="4"></rect>
                <rect id="Rectangle-path" x="23" y="16" width="19" height="4"></rect>
                <path d="M22,24 L32,24" id="Shape" stroke-dasharray="2,2"></path>
            </g>
        </g>
    </g>
</svg>