<svg xmlns="http://www.w3.org/2000/svg" xmlns:xlink="http://www.w3.org/1999/xlink" version="1.1" x="0px" y="0px" viewBox="0 0 100 125" style="enable-background:new 0 0 100 100;" xml:space="preserve"><g><path d="M50,5C25.1,5,5,25.1,5,50c0,24.8,20.1,45,45,45c24.9,0,45-20.2,45-45C95,25.1,74.9,5,50,5z M50,91C27.4,91,9,72.6,9,50   S27.4,9,50,9c22.6,0,41,18.4,41,41S72.6,91,50,91z"/><path d="M26.8,70.3L26.8,70.3c-0.8,4.1,0.5,8,3.5,9.8c1.3,1,2.9,1.5,4.6,1.5c2.4,0,5-1,7.2-2.8c2.6,0.7,5.2,1,7.9,1   c14.4-0.1,26.8-9.6,30.9-20.8H19.1C20.6,63.1,23.3,67,26.8,70.3z M32.6,76.9l-0.2-0.2c-1-0.6-1.6-1.8-1.8-3.3   c-0.2-1.4,0.1-3.1,0.8-4.7c0.8-1.7,2.1-3.2,3.5-4c0.5-0.3,1.3-0.6,2.2-0.6c0.4,0,0.8,0.1,1.2,0.3c0.4,0.2,0.8,0.5,1.1,1L40,66   l0.7,0.2c0.5,0.1,1,0.4,1.3,0.7c1,1,1,2.5,0.9,3.3c-0.2,1.6-1.1,3.3-2.5,4.7c-1,1-2.1,1.8-3.3,2.2C35.4,77.8,33.7,77.8,32.6,76.9z"/><path d="M49.5,42.8c0-9.4-7.6-17-17-17c-9.4,0-17,7.6-17,17c0,8.6,5.9,13.6,16.3,13.6C42.7,56.4,49.5,51.2,49.5,42.8z M32.5,29.8   c7.2,0,13,5.8,13,13c0,8.6-9.6,9.6-13.7,9.6c-8.2,0-12.3-3.2-12.3-9.6C19.5,35.6,25.3,29.8,32.5,29.8z"/><path d="M32.5,46.8c2.2,0,4-1.8,4-4c0-2.2-1.8-4-4-4c-2.2,0-4,1.8-4,4C28.5,45,30.3,46.8,32.5,46.8z"/><path d="M67.5,29.8c-9.4,0-17,7.6-17,17v2h34v-2C84.5,37.4,76.9,29.8,67.5,29.8z M72.4,44.8c-0.5-2.3-2.5-4-4.9-4s-4.4,1.7-4.9,4   h-7.9c1-6.2,6.4-11,12.8-11c6.5,0,11.9,4.8,12.8,11H72.4z"/></g><text x="0" y="115" fill="#000000" font-size="5px" font-weight="bold" font-family="'Helvetica Neue', Helvetica, Arial-Unicode, Arial, Sans-serif">Created by AfterGrind</text><text x="0" y="120" fill="#000000" font-size="5px" font-weight="bold" font-family="'Helvetica Neue', Helvetica, Arial-Unicode, Arial, Sans-serif">from the Noun Project</text></svg>